<svg xmlns="http://www.w3.org/2000/svg" viewBox="0 0 613 613"><defs><style>.cls-1{fill:#253745;stroke:#1d1d1b;stroke-miterlimit:10;stroke-width:2px;}.cls-2,.cls-5{fill:#fff;}.cls-2{opacity:0.03;}.cls-3{opacity:0.1;}.cls-4{opacity:0.15;}.cls-5{opacity:0.05;}</style></defs><g id="Capa_1" data-name="Capa 1"><path class="cls-1" d="M418.87,182.79V32.13a15.16,15.16,0,0,0-15.32-15H210.09a15.15,15.15,0,0,0-15.31,15V182.79a15.16,15.16,0,0,1-15.32,15H17.14a15.17,15.17,0,0,0-15.32,15v187a15.16,15.16,0,0,0,15.32,15H179.46a15.17,15.17,0,0,1,15.32,15V580.46a15.16,15.16,0,0,0,15.31,15H403.55a15.17,15.17,0,0,0,15.32-15V429.79a15.16,15.16,0,0,1,15.31-15H596.51a15.15,15.15,0,0,0,15.31-15v-187a15.16,15.16,0,0,0-15.31-15H434.18A15.15,15.15,0,0,1,418.87,182.79Z"/><path class="cls-2" d="M400.32,18.44a17.58,17.58,0,0,1,7.11,4.66,16.57,16.57,0,0,1,3.56,6,15.54,15.54,0,0,1,.72,5.47l.44,148.51a12.63,12.63,0,0,0,1.31,7.16,13.16,13.16,0,0,0,6.36,5.8,16.23,16.23,0,0,0,3.84,1.16,18.51,18.51,0,0,0,4.79.25,15.48,15.48,0,0,1-4.48-2.73,14.83,14.83,0,0,1-5.07-10.14Q419,110,419.07,35.4a18.5,18.5,0,0,0-.14-2.34,18,18,0,0,0-2.33-7.31,15,15,0,0,0-16.28-7.31Z"/><path class="cls-2" d="M596.32,197.79a15.9,15.9,0,0,1,7.25,6.25,15.62,15.62,0,0,1,2.25,7.5q.25,96,.5,192a12.26,12.26,0,0,1-9.81,11.25,16,16,0,0,0,11.62-5.23,15.44,15.44,0,0,0,3.66-8.79l0-188a15.18,15.18,0,0,0-15.5-15Z"/><path class="cls-3" d="M17.32,197.79a15.54,15.54,0,0,0-9.5,13.75q-.24,96-.5,192a12.25,12.25,0,0,0,9.82,11.25,16,16,0,0,1-11.62-5.23,15.42,15.42,0,0,1-3.66-8.79l0-188A15.56,15.56,0,0,1,6.5,202,15.52,15.52,0,0,1,17.32,197.79Z"/><path class="cls-4" d="M17.32,197.79A14,14,0,0,0,4.2,212.54l.37,187.75a14.65,14.65,0,0,0,12.57,14.5c-3.08-.31-8.17-1.31-11.62-5.23A16.26,16.26,0,0,1,1.86,400c-.9-9.79-.9-85,0-187.25A14.76,14.76,0,0,1,6.5,201.27,14.56,14.56,0,0,1,17.32,197.79Z"/><path class="cls-3" d="M213.07,17.13a16,16,0,0,0-8.25,3.39,15.64,15.64,0,0,0-5.89,12.75c-.58,84.26-.82,143.57-.29,149a16.68,16.68,0,0,1-.87,7.18,10.84,10.84,0,0,1-3.54,5.31c-1.48,1.12-2.89,1.44-5.32,2a29.28,29.28,0,0,1-6.31.72,17.67,17.67,0,0,0,6.72-3.21,12.75,12.75,0,0,0,3.34-3.58,12.35,12.35,0,0,0,1.5-6.89c-.22-5-.18-64.34-.11-149.66a21,21,0,0,1,1.59-7.23A15.33,15.33,0,0,1,200,20.54a14.27,14.27,0,0,1,4.87-2.62A18.15,18.15,0,0,1,213.07,17.13Z"/><path class="cls-4" d="M213.07,17.13a16.55,16.55,0,0,0-6.26.94,17.12,17.12,0,0,0-9.53,8.51,15.71,15.71,0,0,0-1.46,6.88q0,74.51,0,149a12.78,12.78,0,0,1-.29,4.83,12.63,12.63,0,0,1-3.12,5.63,13.79,13.79,0,0,1-4.17,2.79,20.16,20.16,0,0,1-5.68,1.77,17.67,17.67,0,0,0,6.72-3.21,12.75,12.75,0,0,0,3.34-3.58,12.38,12.38,0,0,0,1.5-6.89c-2.19-49.86.18-99.81.16-149.72a20.17,20.17,0,0,1,1.32-7.17A14.92,14.92,0,0,1,200,20.54a13.8,13.8,0,0,1,4.87-2.62,19.25,19.25,0,0,1,3.67-.63A32.42,32.42,0,0,1,213.07,17.13Z"/><path class="cls-3" d="M213.61,595.87a16,16,0,0,1-8.25-3.39,15.67,15.67,0,0,1-5.89-12.77c-.58-84.33-.82-143.68-.29-149.15a16.68,16.68,0,0,0-.87-7.18,10.9,10.9,0,0,0-3.54-5.32c-1.48-1.11-2.89-1.43-5.32-2a29.19,29.19,0,0,0-6.31-.71,17.53,17.53,0,0,1,6.72,3.21,12.61,12.61,0,0,1,3.34,3.58,12.39,12.39,0,0,1,1.5,6.9c-.22,5-.18,64.39-.12,149.79a21.23,21.23,0,0,0,1.6,7.23,15.33,15.33,0,0,0,4.31,6.37,14.15,14.15,0,0,0,4.87,2.63A18.15,18.15,0,0,0,213.61,595.87Z"/><path class="cls-4" d="M213.61,595.87a16.55,16.55,0,0,1-6.26-.94,17,17,0,0,1-5.74-3.48,16.57,16.57,0,0,1-3.79-5,15.74,15.74,0,0,1-1.46-6.88q0-74.56,0-149.13A12.76,12.76,0,0,0,193,419.93a13.61,13.61,0,0,0-4.17-2.79,19.52,19.52,0,0,0-5.68-1.77,17.53,17.53,0,0,1,6.72,3.21,12.61,12.61,0,0,1,3.34,3.58,12.4,12.4,0,0,1,1.5,6.9c-2.19,49.9.18,99.89.16,149.84a20.18,20.18,0,0,0,1.32,7.18,14.92,14.92,0,0,0,4.31,6.37,13.68,13.68,0,0,0,4.87,2.63,19.25,19.25,0,0,0,3.67.63A32.42,32.42,0,0,0,213.61,595.87Z"/><path class="cls-5" d="M596.32,197.79a18,18,0,0,1,10.08,7,17.32,17.32,0,0,1,2.91,7.68l-.15,188.68a14.74,14.74,0,0,1-12.65,13.66,16,16,0,0,0,11.62-5.23,15.42,15.42,0,0,0,3.66-8.79l0-188a15.18,15.18,0,0,0-15.5-15Z"/><path class="cls-5" d="M400.32,18.44A16.62,16.62,0,0,1,410.57,22a16.4,16.4,0,0,1,4.25,5.36,17,17,0,0,1,1.75,8.72L416.2,183.3a15.61,15.61,0,0,0,.87,5.23,14,14,0,0,0,2.88,5,11.51,11.51,0,0,0,3.5,2.74,11.27,11.27,0,0,0,5,1.16,25.44,25.44,0,0,1-4.48-2.73,16.42,16.42,0,0,1-3.4-3.17,12.14,12.14,0,0,1-2.12-7.84c0-6.72.2-141.27,0-147.38-.07-2-.38-4.24-.38-4.24-.4-2.93-.65-4.67-1.47-6.31-1.62-3.23-4.79-4.64-7-5.64A20,20,0,0,0,400.32,18.44Z"/><path class="cls-2" d="M399.79,594.08a17.48,17.48,0,0,0,7.11-4.65,16.74,16.74,0,0,0,3.55-6,15.54,15.54,0,0,0,.72-5.47l.45-148.74a12.6,12.6,0,0,1,1.3-7.16,13.19,13.19,0,0,1,6.37-5.81,15.71,15.71,0,0,1,3.83-1.16,18.51,18.51,0,0,1,4.79-.25,15.48,15.48,0,0,0-4.48,2.73,14.88,14.88,0,0,0-5.06,10.16q.08,74.68.16,149.37a20.33,20.33,0,0,1-.13,2.34,18.22,18.22,0,0,1-2.34,7.31,14.92,14.92,0,0,1-16.27,7.32Z"/><path class="cls-5" d="M399.79,594.08a15.77,15.77,0,0,0,14.5-8.9,17.23,17.23,0,0,0,1.75-8.73L415.66,429a15.75,15.75,0,0,1,.88-5.24,13.78,13.78,0,0,1,2.87-5,11,11,0,0,1,8.5-3.91,25.44,25.44,0,0,0-4.48,2.73,16.4,16.4,0,0,0-3.39,3.17,12.2,12.2,0,0,0-2.13,7.86c0,6.73.2,141.47,0,147.59-.07,2-.37,4.24-.37,4.24-.41,2.94-.65,4.68-1.48,6.32-1.62,3.24-4.79,4.66-7,5.66A19.89,19.89,0,0,1,399.79,594.08Z"/></g></svg>